<svg xmlns="http://www.w3.org/2000/svg" viewBox="0 0 64 64" role="img" aria-label="WhatsApp">
  <circle cx="32" cy="32" r="31" fill="#25D366"/>
  <path fill="#fff" d="M32.1 11.2c-11.3 0-20.5 9.1-20.5 20.4 0 3.6.9 7.1 2.7 10.2L11.5 52l10.5-2.7c3 1.6 6.5 2.5 10.1 2.5 11.3 0 20.5-9.1 20.5-20.4S43.4 11.2 32.1 11.2Zm0 37.1c-3.2 0-6.2-.9-8.9-2.5l-.6-.4-6.2 1.6 1.7-6-.4-.6c-1.8-2.7-2.7-5.8-2.7-8.9 0-9.4 7.7-17 17.1-17 9.5 0 17.1 7.6 17.1 17s-7.6 16.8-17.1 16.8Z"/>
  <path fill="#fff" d="M41.5 36.8c-.5-.3-3.1-1.5-3.6-1.7-.5-.2-.9-.3-1.2.3-.4.5-1.4 1.7-1.7 2.1-.3.4-.6.4-1.1.1-.5-.3-2.2-.8-4.2-2.6-1.5-1.4-2.6-3.1-2.9-3.6-.3-.5 0-.8.2-1.1.2-.2.5-.6.8-.9.3-.3.4-.5.6-.9.2-.4.1-.7 0-.9-.1-.3-1.2-2.9-1.7-4-.4-1-.8-.9-1.2-.9h-1c-.4 0-.9.1-1.4.7-.5.5-1.8 1.8-1.8 4.4s1.9 5.1 2.2 5.5c.3.4 3.8 5.8 9.2 8.1 1.3.6 2.3.9 3.1 1.1 1.3.4 2.5.3 3.4.2 1-.2 3.1-1.3 3.5-2.5.4-1.2.4-2.3.3-2.5-.1-.4-.5-.6-1-.9Z"/>
</svg>